# xmcd
#
# Track frame offsets: 
#        150
#        14640
#        37115
#        56952
#        72190
#        83055
#        95820
#        111945
#        126387
#        143587
#        162500
#        184302
#        240765
#        256230
#        285490
#
# Disc length: 4148 seconds
#
# Revision: 2
# Processed by: cddbd v1.5.2PL0 Copyright (c) Steve Scherf et al.
# Submitted via: ExactAudioCopy v1.0b4
#
DISCID=db10320f
DTITLE=Various Artist - Living the Blues - Whiter Shade of Blue CD2
DYEAR=2000
DGENRE=Blues
TTITLE0=Canned Heat - Big road blues
TTITLE1=Blues Project - Spoonful
TTITLE2=Paul Butterfield - Blues with a feeling
TTITLE3=John Hammond - I can tell
TTITLE4=Big Brother and The Holding Company - Easy rider
TTITLE5=Captain Beefheart - Gimme dat harp boy
TTITLE6=Quicksilver Messenger Service - Who do you love
TTITLE7=Johnny Winter - Rollin' and tumblin'
TTITLE8=Alman Brothers - Trouble no more
TTITLE9=Electric Flag - Killing floor
TTITLE10=Taj Mahal - Leaving trunk
TTITLE11=Boz Scaggs - Loan me a dime
TTITLE12=Ry Cooder - Goin' to Brownsville
TTITLE13=Little Feat - 44 Blues - How many years (medley)
TTITLE14=Band - Mystery train
EXTD=
EXTT0=
EXTT1=
EXTT2=
EXTT3=
EXTT4=
EXTT5=
EXTT6=
EXTT7=
EXTT8=
EXTT9=
EXTT10=
EXTT11=
EXTT12=
EXTT13=
EXTT14=
PLAYORDER=
